<svg xmlns="http://www.w3.org/2000/svg" xmlns:xlink="http://www.w3.org/1999/xlink" width="231" zoomAndPan="magnify" viewBox="0 0 173.25 50.249999" height="67" preserveAspectRatio="xMidYMid meet" version="1.0"><defs><clipPath id="6ae8a3b76e"><path d="M 0.90625 12 L 7 12 L 7 37 L 0.90625 37 Z M 0.90625 12 " clip-rule="nonzero"/></clipPath><clipPath id="40f22be3dd"><path d="M 165 12 L 171.605469 12 L 171.605469 37 L 165 37 Z M 165 12 " clip-rule="nonzero"/></clipPath><clipPath id="f2ce0b5784"><path d="M 13 36 L 166 36 L 166 48.773438 L 13 48.773438 Z M 13 36 " clip-rule="nonzero"/></clipPath><clipPath id="e44a56e9c5"><path d="M 17.113281 13.421875 L 157.65625 13.421875 L 157.65625 39.683594 L 17.113281 39.683594 Z M 17.113281 13.421875 " clip-rule="nonzero"/></clipPath></defs><path fill="#391475" d="M 109.253906 22.648438 L 112.820312 22.648438 L 112.820312 19.085938 L 105.691406 19.085938 L 105.691406 22.648438 Z M 109.253906 22.648438 " fill-opacity="1" fill-rule="nonzero"/><path fill="#391475" d="M 165.480469 24.582031 L 165.480469 12.402344 L 159.390625 12.402344 L 159.390625 6.308594 L 153.296875 6.152344 L 13.105469 6.152344 L 13.105469 12.246094 L 7.015625 12.246094 L 7.015625 36.609375 L 13.105469 36.609375 L 13.105469 42.699219 L 159.320312 42.699219 L 159.320312 36.765625 L 165.414062 36.765625 L 165.414062 24.582031 Z M 34.726562 19.085938 L 34.726562 33.339844 L 31.164062 33.339844 L 31.164062 26.210938 L 27.601562 26.210938 L 27.601562 22.648438 L 24.039062 22.648438 L 24.039062 33.339844 L 20.476562 33.339844 L 20.476562 15.523438 L 24.039062 15.523438 L 24.039062 19.085938 L 27.601562 19.085938 L 27.601562 22.648438 L 31.164062 22.648438 L 31.164062 15.523438 L 34.726562 15.523438 Z M 48.96875 19.085938 L 41.84375 19.085938 L 41.84375 22.648438 L 45.40625 22.648438 L 45.40625 26.210938 L 41.84375 26.210938 L 41.84375 29.777344 L 48.96875 29.777344 L 48.96875 33.339844 L 38.28125 33.339844 L 38.28125 15.523438 L 48.96875 15.523438 Z M 70.347656 19.085938 L 70.347656 29.777344 L 66.785156 29.777344 L 66.785156 33.339844 L 63.222656 33.339844 L 63.222656 29.777344 L 59.65625 29.777344 L 59.65625 33.339844 L 56.09375 33.339844 L 56.09375 29.777344 L 52.53125 29.777344 L 52.53125 15.523438 L 56.09375 15.523438 L 56.09375 29.777344 L 59.65625 29.777344 L 59.65625 22.648438 L 63.222656 22.648438 L 63.222656 29.777344 L 66.785156 29.777344 L 66.785156 15.523438 L 70.347656 15.523438 Z M 98.566406 19.085938 L 84.316406 19.085938 L 84.316406 29.777344 L 95.003906 29.777344 L 95.003906 26.210938 L 87.878906 26.210938 L 87.878906 22.648438 L 98.566406 22.648438 L 98.566406 29.777344 L 95.003906 29.777344 L 95.003906 33.339844 L 84.316406 33.339844 L 84.316406 29.777344 L 80.753906 29.777344 L 80.753906 19.085938 L 84.316406 19.085938 L 84.316406 15.523438 L 98.566406 15.523438 Z M 116.382812 22.648438 L 116.382812 33.339844 L 112.820312 33.339844 L 112.820312 26.210938 L 105.691406 26.210938 L 105.691406 33.339844 L 102.128906 33.339844 L 102.128906 19.085938 L 105.691406 19.085938 L 105.691406 15.523438 L 112.820312 15.523438 L 112.820312 19.085938 L 116.382812 19.085938 Z M 137.75 19.085938 L 137.75 33.339844 L 134.1875 33.339844 L 134.1875 22.648438 L 130.625 22.648438 L 130.625 26.210938 L 127.058594 26.210938 L 127.058594 22.648438 L 123.496094 22.648438 L 123.496094 33.339844 L 119.933594 33.339844 L 119.933594 15.523438 L 123.496094 15.523438 L 123.496094 19.085938 L 127.058594 19.085938 L 127.058594 22.648438 L 130.625 22.648438 L 130.625 19.085938 L 134.1875 19.085938 L 134.1875 15.523438 L 137.75 15.523438 Z M 152 19.085938 L 144.875 19.085938 L 144.875 22.648438 L 148.4375 22.648438 L 148.4375 26.210938 L 144.875 26.210938 L 144.875 29.777344 L 152 29.777344 L 152 33.339844 L 141.3125 33.339844 L 141.3125 15.523438 L 152 15.523438 Z M 152 19.085938 " fill-opacity="1" fill-rule="nonzero"/><path fill="#391475" d="M 109.253906 22.648438 L 112.820312 22.648438 L 112.820312 19.085938 L 105.691406 19.085938 L 105.691406 22.648438 Z M 109.253906 22.648438 " fill-opacity="1" fill-rule="nonzero"/><path fill="#ffffff" d="M 25.277344 6.144531 L 153.289062 6.144531 L 159.390625 6.300781 L 159.390625 0.0429688 L 13.085938 0.0429688 L 13.085938 6.144531 Z M 25.277344 6.144531 " fill-opacity="1" fill-rule="nonzero"/><path fill="#ffffff" d="M 6.996094 6.144531 L 13.085938 6.144531 L 13.085938 12.234375 L 6.996094 12.234375 Z M 6.996094 6.144531 " fill-opacity="1" fill-rule="nonzero"/><g clip-path="url(#6ae8a3b76e)"><path fill="#ffffff" d="M 6.996094 24.425781 L 6.996094 12.234375 L 0.90625 12.234375 L 0.90625 36.617188 L 6.996094 36.617188 Z M 6.996094 24.425781 " fill-opacity="1" fill-rule="nonzero"/></g><path fill="#ffffff" d="M 6.996094 36.617188 L 13.085938 36.617188 L 13.085938 42.710938 L 6.996094 42.710938 Z M 6.996094 36.617188 " fill-opacity="1" fill-rule="nonzero"/><path fill="#ffffff" d="M 159.390625 6.300781 L 165.480469 6.300781 L 165.480469 12.390625 L 159.390625 12.390625 Z M 159.390625 6.300781 " fill-opacity="1" fill-rule="nonzero"/><g clip-path="url(#40f22be3dd)"><path fill="#ffffff" d="M 165.480469 18.492188 L 165.480469 36.773438 L 171.570312 36.773438 L 171.570312 12.402344 L 165.480469 12.402344 Z M 165.480469 18.492188 " fill-opacity="1" fill-rule="nonzero"/></g><g clip-path="url(#f2ce0b5784)"><path fill="#ffffff" d="M 159.390625 42.710938 L 13.085938 42.710938 L 13.085938 48.808594 L 159.390625 48.808594 L 159.390625 42.875 L 165.480469 42.875 L 165.480469 36.773438 L 159.390625 36.773438 Z M 159.390625 42.710938 " fill-opacity="1" fill-rule="nonzero"/></g><path fill="#ffffff" d="M 144.875 15.523438 L 141.3125 15.523438 L 141.3125 33.328125 L 152 33.328125 L 152 29.765625 L 144.875 29.765625 L 144.875 26.203125 L 148.4375 26.203125 L 148.4375 22.648438 L 144.875 22.648438 L 144.875 19.085938 L 152 19.085938 L 152 15.523438 Z M 144.875 15.523438 " fill-opacity="1" fill-rule="nonzero"/><path fill="#ffffff" d="M 134.1875 19.085938 L 130.632812 19.085938 L 130.632812 22.648438 L 134.1875 22.648438 L 134.1875 33.328125 L 137.75 33.328125 L 137.75 15.523438 L 134.1875 15.523438 Z M 134.1875 19.085938 " fill-opacity="1" fill-rule="nonzero"/><path fill="#ffffff" d="M 127.070312 22.648438 L 130.632812 22.648438 L 130.632812 26.210938 L 127.070312 26.210938 Z M 127.070312 22.648438 " fill-opacity="1" fill-rule="nonzero"/><path fill="#ffffff" d="M 66.785156 19.085938 L 66.785156 29.765625 L 70.347656 29.765625 L 70.347656 15.523438 L 66.785156 15.523438 Z M 66.785156 19.085938 " fill-opacity="1" fill-rule="nonzero"/><path fill="#ffffff" d="M 123.507812 19.085938 L 123.507812 15.523438 L 119.945312 15.523438 L 119.945312 33.328125 L 123.507812 33.328125 L 123.507812 22.648438 L 127.070312 22.648438 L 127.070312 19.085938 Z M 123.507812 19.085938 " fill-opacity="1" fill-rule="nonzero"/><path fill="#ffffff" d="M 63.222656 29.765625 L 66.785156 29.765625 L 66.785156 33.328125 L 63.222656 33.328125 Z M 63.222656 29.765625 " fill-opacity="1" fill-rule="nonzero"/><path fill="#ffffff" d="M 63.222656 22.648438 L 59.65625 22.648438 L 59.65625 29.765625 L 63.222656 29.765625 Z M 63.222656 22.648438 " fill-opacity="1" fill-rule="nonzero"/><path fill="#ffffff" d="M 56.09375 29.765625 L 59.65625 29.765625 L 59.65625 33.328125 L 56.09375 33.328125 Z M 56.09375 29.765625 " fill-opacity="1" fill-rule="nonzero"/><path fill="#ffffff" d="M 112.820312 22.648438 L 105.691406 22.648438 L 105.691406 19.085938 L 102.128906 19.085938 L 102.128906 33.328125 L 105.691406 33.328125 L 105.691406 26.203125 L 112.820312 26.203125 L 112.820312 33.328125 L 116.382812 33.328125 L 116.382812 19.085938 L 112.820312 19.085938 Z M 112.820312 22.648438 " fill-opacity="1" fill-rule="nonzero"/><path fill="#ffffff" d="M 56.09375 22.648438 L 56.09375 15.523438 L 52.53125 15.523438 L 52.53125 29.765625 L 56.09375 29.765625 Z M 56.09375 22.648438 " fill-opacity="1" fill-rule="nonzero"/><path fill="#ffffff" d="M 112.820312 19.085938 L 112.820312 15.523438 L 105.691406 15.523438 L 105.691406 19.085938 Z M 112.820312 19.085938 " fill-opacity="1" fill-rule="nonzero"/><path fill="#ffffff" d="M 41.84375 15.523438 L 38.289062 15.523438 L 38.289062 33.328125 L 48.96875 33.328125 L 48.96875 29.765625 L 41.84375 29.765625 L 41.84375 26.203125 L 45.40625 26.203125 L 45.40625 22.648438 L 41.84375 22.648438 L 41.84375 19.085938 L 48.96875 19.085938 L 48.96875 15.523438 Z M 41.84375 15.523438 " fill-opacity="1" fill-rule="nonzero"/><path fill="#ffffff" d="M 98.566406 26.203125 L 98.566406 22.648438 L 87.886719 22.648438 L 87.886719 26.203125 L 95.011719 26.203125 L 95.011719 29.765625 L 98.566406 29.765625 Z M 98.566406 26.203125 " fill-opacity="1" fill-rule="nonzero"/><path fill="#ffffff" d="M 91.449219 15.523438 L 84.324219 15.523438 L 84.324219 19.085938 L 98.566406 19.085938 L 98.566406 15.523438 Z M 91.449219 15.523438 " fill-opacity="1" fill-rule="nonzero"/><path fill="#ffffff" d="M 31.164062 19.085938 L 31.164062 22.648438 L 27.601562 22.648438 L 27.601562 26.203125 L 31.164062 26.203125 L 31.164062 33.328125 L 34.726562 33.328125 L 34.726562 15.523438 L 31.164062 15.523438 Z M 31.164062 19.085938 " fill-opacity="1" fill-rule="nonzero"/><path fill="#ffffff" d="M 87.886719 33.328125 L 95.011719 33.328125 L 95.011719 29.765625 L 84.324219 29.765625 L 84.324219 33.328125 Z M 87.886719 33.328125 " fill-opacity="1" fill-rule="nonzero"/><path fill="#ffffff" d="M 24.039062 19.085938 L 24.039062 15.523438 L 20.476562 15.523438 L 20.476562 33.328125 L 24.039062 33.328125 L 24.039062 22.648438 L 27.601562 22.648438 L 27.601562 19.085938 Z M 24.039062 19.085938 " fill-opacity="1" fill-rule="nonzero"/><path fill="#ffffff" d="M 80.761719 22.648438 L 80.761719 29.765625 L 84.324219 29.765625 L 84.324219 19.085938 L 80.761719 19.085938 Z M 80.761719 22.648438 " fill-opacity="1" fill-rule="nonzero"/><g clip-path="url(#e44a56e9c5)"><path fill="#391475" d="M 17.113281 13.421875 L 157.648438 13.421875 L 157.648438 39.683594 L 17.113281 39.683594 Z M 17.113281 13.421875 " fill-opacity="1" fill-rule="nonzero"/></g></svg>