<svg xmlns="http://www.w3.org/2000/svg" xmlns:xlink="http://www.w3.org/1999/xlink" width="1006" zoomAndPan="magnify" viewBox="0 0 754.5 123.000003" height="164" preserveAspectRatio="xMidYMid meet" version="1.0"><defs><g/><clipPath id="0fe617d651"><path d="M 70 19.953125 L 132 19.953125 L 132 24 L 70 24 Z M 70 19.953125 " clip-rule="nonzero"/></clipPath><clipPath id="3f473f68a7"><path d="M 2.792969 56 L 132 56 L 132 60 L 2.792969 60 Z M 2.792969 56 " clip-rule="nonzero"/></clipPath><clipPath id="b14705d9ce"><path d="M 73 86 L 132 86 L 132 89.882812 L 73 89.882812 Z M 73 86 " clip-rule="nonzero"/></clipPath><clipPath id="62c02ac8ce"><path d="M 621.5 32 L 702 32 L 702 36 L 621.5 36 Z M 621.5 32 " clip-rule="nonzero"/></clipPath><clipPath id="84cec2acc0"><path d="M 621.5 25 L 706 25 L 706 30 L 621.5 30 Z M 621.5 25 " clip-rule="nonzero"/></clipPath><clipPath id="b185685f9d"><path d="M 621.5 19.953125 L 683 19.953125 L 683 24 L 621.5 24 Z M 621.5 19.953125 " clip-rule="nonzero"/></clipPath><clipPath id="3221c072a2"><path d="M 621.5 50 L 741 50 L 741 54 L 621.5 54 Z M 621.5 50 " clip-rule="nonzero"/></clipPath><clipPath id="dc40f146a0"><path d="M 621.5 44 L 720 44 L 720 48 L 621.5 48 Z M 621.5 44 " clip-rule="nonzero"/></clipPath><clipPath id="91f511866e"><path d="M 621.5 38 L 712 38 L 712 42 L 621.5 42 Z M 621.5 38 " clip-rule="nonzero"/></clipPath><clipPath id="eefaca661f"><path d="M 621.5 68 L 715 68 L 715 72 L 621.5 72 Z M 621.5 68 " clip-rule="nonzero"/></clipPath><clipPath id="95eb31c2bb"><path d="M 621.5 62 L 733 62 L 733 66 L 621.5 66 Z M 621.5 62 " clip-rule="nonzero"/></clipPath><clipPath id="e918340581"><path d="M 621.5 56 L 750.644531 56 L 750.644531 60 L 621.5 60 Z M 621.5 56 " clip-rule="nonzero"/></clipPath><clipPath id="80f6abce96"><path d="M 621.5 86 L 680 86 L 680 89.882812 L 621.5 89.882812 Z M 621.5 86 " clip-rule="nonzero"/></clipPath><clipPath id="96995182f1"><path d="M 621.5 80 L 704 80 L 704 84 L 621.5 84 Z M 621.5 80 " clip-rule="nonzero"/></clipPath><clipPath id="fa1a501ecc"><path d="M 621.5 74 L 710 74 L 710 78 L 621.5 78 Z M 621.5 74 " clip-rule="nonzero"/></clipPath></defs><path stroke-linecap="butt" transform="matrix(0.483461, 0, 0, 0.483461, 131.944532, 13.119651)" fill="none" stroke-linejoin="miter" d="M 42.897035 140.000902 L 25.097335 140.000902 L 25.097335 27.070165 L 42.897035 27.070165 L 53.764306 58.330737 L 64.259908 27.070165 L 82.059608 27.070165 L 82.059608 140.000902 L 64.259908 140.000902 L 64.259908 75.548695 L 61.706705 82.481125 L 61.706705 92.661617 L 45.450238 92.661617 L 45.450238 82.481125 L 42.897035 75.548695 Z M 93.21775 27.070165 L 150.155784 27.070165 L 150.155784 140.000902 L 132.348004 140.000902 L 132.348004 92.661617 L 111.02553 92.661617 L 111.02553 140.000902 L 93.21775 140.000902 Z M 132.348004 74.853837 L 132.348004 44.869865 L 111.02553 44.869865 L 111.02553 74.853837 Z M 179.703449 122.193122 L 218.866022 122.193122 L 218.866022 140.000902 L 161.895669 140.000902 L 161.895669 27.070165 L 179.703449 27.070165 Z M 287.131873 44.869865 L 247.9693 44.869865 L 247.9693 122.193122 L 287.131873 122.193122 L 287.131873 140.000902 L 230.161519 140.000902 L 230.161519 27.070165 L 287.131873 27.070165 Z M 298.702082 27.070165 L 355.672435 27.070165 L 355.672435 140.000902 L 298.702082 140.000902 Z M 337.864655 122.193122 L 337.864655 44.869865 L 316.509862 44.869865 L 316.509862 122.193122 Z M 384.913069 122.193122 L 424.075642 122.193122 L 424.075642 140.000902 L 367.105289 140.000902 L 367.105289 27.070165 L 384.913069 27.070165 Z M 453.316276 140.000902 L 435.508496 140.000902 L 435.508496 27.070165 L 453.316276 27.070165 L 464.183547 58.330737 L 474.671069 27.070165 L 492.478849 27.070165 L 492.478849 140.000902 L 474.671069 140.000902 L 474.671069 75.548695 L 472.117866 82.481125 L 472.117866 92.661617 L 455.869479 92.661617 L 455.869479 82.481125 L 453.316276 75.548695 Z M 453.316276 140.000902 " stroke="#ffffff" stroke-width="5.65352" stroke-opacity="1" stroke-miterlimit="4"/><path stroke-linecap="butt" transform="matrix(0.483461, 0, 0, 0.483461, 131.944532, 13.119651)" fill="none" stroke-linejoin="miter" d="M 536.00449 36.967865 L 536.965981 38.486859 C 534.67133 47.552344 530.623373 58.57313 524.822109 71.541137 L 515.368795 71.541137 C 518.592618 57.603559 520.887268 46.081829 522.268906 36.967865 Z M 536.00449 36.967865 " stroke="#ffffff" stroke-width="5.65352" stroke-opacity="1" stroke-miterlimit="4"/><path stroke-linecap="butt" transform="matrix(0.483461, 0, 0, 0.483461, 131.944532, 13.119651)" fill="none" stroke-linejoin="miter" d="M 604.908641 44.869865 L 565.746068 44.869865 L 565.746068 70.886677 L 604.908641 64.091603 L 604.908641 140.000902 L 547.938288 140.000902 L 547.938288 122.193122 L 587.100861 122.193122 L 587.100861 83.895082 L 547.938288 92.661617 L 547.938288 27.070165 L 604.908641 27.070165 Z M 684.615426 27.070165 L 702.423206 27.070165 L 702.423206 140.000902 L 684.615426 140.000902 L 673.853192 108.772648 L 663.260633 140.000902 L 645.452853 140.000902 L 645.452853 27.070165 L 663.260633 27.070165 L 663.260633 91.522371 L 665.813835 84.589941 L 665.813835 74.40945 L 682.062223 74.40945 L 682.062223 84.589941 L 684.615426 91.522371 Z M 713.856059 27.070165 L 770.826413 27.070165 L 770.826413 140.000902 L 713.856059 140.000902 Z M 753.018632 122.193122 L 753.018632 44.869865 L 731.66384 44.869865 L 731.66384 122.193122 Z M 782.12191 27.070165 L 839.092264 27.070165 L 839.092264 92.661617 L 825.809146 92.661617 L 839.092264 140.000902 L 821.252164 140.000902 L 803.032317 74.853837 L 821.252164 74.853837 L 821.252164 44.869865 L 799.929691 44.869865 L 799.929691 140.000902 L 782.12191 140.000902 Z M 868.470253 122.193122 L 907.632826 122.193122 L 907.632826 140.000902 L 850.662473 140.000902 L 850.662473 27.070165 L 868.470253 27.070165 Z M 936.598748 122.193122 L 957.921222 122.193122 L 957.921222 46.736289 L 936.598748 51.527584 Z M 975.720923 26.932809 L 975.720923 140.000902 L 918.790968 140.000902 L 918.790968 27.070165 L 936.598748 27.070165 L 936.598748 33.727883 Z M 975.720923 26.932809 " stroke="#ffffff" stroke-width="5.65352" stroke-opacity="1" stroke-miterlimit="4"/><g fill="#ffffff" fill-opacity="1"><g transform="translate(144.076392, 80.804251)"><g><path d="M 8.609375 0 L 0 0 L 0 -54.59375 L 8.609375 -54.59375 L 13.875 -39.5 L 18.921875 -54.59375 L 27.53125 -54.59375 L 27.53125 0 L 18.921875 0 L 18.921875 -31.15625 L 17.703125 -27.8125 L 17.703125 -22.890625 L 9.84375 -22.890625 L 9.84375 -27.8125 L 8.609375 -31.15625 Z M 8.609375 0 "/></g></g></g><g fill="#ffffff" fill-opacity="1"><g transform="translate(177.146509, 80.804251)"><g><path d="M -0.140625 -54.59375 L 27.40625 -54.59375 L 27.40625 0 L 18.796875 0 L 18.796875 -22.890625 L 8.46875 -22.890625 L 8.46875 0 L -0.140625 0 Z M 18.796875 -31.5 L 18.796875 -45.984375 L 8.46875 -45.984375 L 8.46875 -31.5 Z M 18.796875 -31.5 "/></g></g></g><g fill="#ffffff" fill-opacity="1"><g transform="translate(210.216626, 80.804251)"><g><path d="M 8.609375 -8.609375 L 27.53125 -8.609375 L 27.53125 0 L 0 0 L 0 -54.59375 L 8.609375 -54.59375 Z M 8.609375 -8.609375 "/></g></g></g><g fill="#ffffff" fill-opacity="1"><g transform="translate(243.286742, 80.804251)"><g><path d="M 27.46875 -45.984375 L 8.546875 -45.984375 L 8.546875 -8.609375 L 27.46875 -8.609375 L 27.46875 0 L -0.0625 0 L -0.0625 -54.59375 L 27.46875 -54.59375 Z M 27.46875 -45.984375 "/></g></g></g><g fill="#ffffff" fill-opacity="1"><g transform="translate(276.356859, 80.804251)"><g><path d="M 0 -54.59375 L 27.53125 -54.59375 L 27.53125 0 L 0 0 Z M 18.921875 -8.609375 L 18.921875 -45.984375 L 8.609375 -45.984375 L 8.609375 -8.609375 Z M 18.921875 -8.609375 "/></g></g></g><g fill="#ffffff" fill-opacity="1"><g transform="translate(309.426976, 80.804251)"><g><path d="M 8.609375 -8.609375 L 27.53125 -8.609375 L 27.53125 0 L 0 0 L 0 -54.59375 L 8.609375 -54.59375 Z M 8.609375 -8.609375 "/></g></g></g><g fill="#ffffff" fill-opacity="1"><g transform="translate(342.497093, 80.804251)"><g><path d="M 8.609375 0 L 0 0 L 0 -54.59375 L 8.609375 -54.59375 L 13.875 -39.5 L 18.921875 -54.59375 L 27.53125 -54.59375 L 27.53125 0 L 18.921875 0 L 18.921875 -31.15625 L 17.703125 -27.8125 L 17.703125 -22.890625 L 9.84375 -22.890625 L 9.84375 -27.8125 L 8.609375 -31.15625 Z M 8.609375 0 "/></g></g></g><g fill="#ffffff" fill-opacity="1"><g transform="translate(375.567208, 80.804251)"><g><path d="M 15.515625 -49.8125 L 15.984375 -49.078125 C 14.867188 -44.691406 12.910156 -39.363281 10.109375 -33.09375 L 5.53125 -33.09375 C 7.09375 -39.832031 8.207031 -45.40625 8.875 -49.8125 Z M 15.109375 -42.5 Z M 14.953125 -61.25 Z M 14.953125 -61.25 "/></g></g></g><g fill="#ffffff" fill-opacity="1"><g transform="translate(396.852569, 80.804251)"><g><path d="M 27.53125 -45.984375 L 8.609375 -45.984375 L 8.609375 -33.40625 L 27.53125 -36.6875 L 27.53125 0 L 0 0 L 0 -8.609375 L 18.921875 -8.609375 L 18.921875 -27.125 L 0 -22.890625 L 0 -54.59375 L 27.53125 -54.59375 Z M 27.53125 -45.984375 "/></g></g></g><g fill="#ffffff" fill-opacity="1"><g transform="translate(429.922671, 80.804251)"><g/></g></g><g fill="#ffffff" fill-opacity="1"><g transform="translate(443.997967, 80.804251)"><g><path d="M 18.921875 -54.59375 L 27.53125 -54.59375 L 27.53125 0 L 18.921875 0 L 13.734375 -15.09375 L 8.609375 0 L 0 0 L 0 -54.59375 L 8.609375 -54.59375 L 8.609375 -23.4375 L 9.84375 -26.78125 L 9.84375 -31.703125 L 17.703125 -31.703125 L 17.703125 -26.78125 L 18.921875 -23.4375 Z M 18.921875 -54.59375 "/></g></g></g><g fill="#ffffff" fill-opacity="1"><g transform="translate(477.068069, 80.804251)"><g><path d="M 0 -54.59375 L 27.53125 -54.59375 L 27.53125 0 L 0 0 Z M 18.921875 -8.609375 L 18.921875 -45.984375 L 8.609375 -45.984375 L 8.609375 -8.609375 Z M 18.921875 -8.609375 "/></g></g></g><g fill="#ffffff" fill-opacity="1"><g transform="translate(510.1382, 80.804251)"><g><path d="M -0.0625 -54.59375 L 27.46875 -54.59375 L 27.46875 -22.890625 L 21.046875 -22.890625 L 27.46875 0 L 18.859375 0 L 10.046875 -31.5 L 18.859375 -31.5 L 18.859375 -45.984375 L 8.546875 -45.984375 L 8.546875 0 L -0.0625 0 Z M -0.0625 -54.59375 "/></g></g></g><g fill="#ffffff" fill-opacity="1"><g transform="translate(543.208331, 80.804251)"><g><path d="M 8.609375 -8.609375 L 27.53125 -8.609375 L 27.53125 0 L 0 0 L 0 -54.59375 L 8.609375 -54.59375 Z M 8.609375 -8.609375 "/></g></g></g><g fill="#ffffff" fill-opacity="1"><g transform="translate(576.278463, 80.804251)"><g><path d="M 8.46875 -8.609375 L 18.796875 -8.609375 L 18.796875 -45.09375 L 8.46875 -42.765625 Z M 27.40625 -54.65625 L 27.40625 0 L -0.140625 0 L -0.140625 -54.59375 L 8.46875 -54.59375 L 8.46875 -51.375 Z M 27.40625 -54.65625 "/></g></g></g><path fill="#ffffff" d="M 130.671875 35.4375 L 52.148438 33.71875 L 130.671875 32.003906 C 131.355469 31.988281 131.914062 32.746094 131.925781 33.691406 C 131.9375 34.640625 131.394531 35.421875 130.710938 35.4375 C 130.699219 35.4375 130.683594 35.4375 130.671875 35.4375 Z M 130.671875 35.4375 " fill-opacity="1" fill-rule="nonzero"/><path fill="#ffffff" d="M 130.023438 29.417969 L 47.90625 27.703125 L 130.023438 25.984375 C 130.835938 25.96875 131.503906 26.722656 131.519531 27.671875 C 131.535156 28.621094 130.886719 29.40625 130.078125 29.421875 C 130.058594 29.421875 130.039062 29.421875 130.023438 29.417969 Z M 130.023438 29.417969 " fill-opacity="1" fill-rule="nonzero"/><g clip-path="url(#0fe617d651)"><path fill="#ffffff" d="M 130.433594 23.402344 L 70.84375 21.683594 L 130.433594 19.96875 C 131.023438 19.953125 131.507812 20.707031 131.519531 21.65625 C 131.53125 22.601562 131.058594 23.386719 130.472656 23.402344 C 130.460938 23.402344 130.445312 23.402344 130.433594 23.402344 Z M 130.433594 23.402344 " fill-opacity="1" fill-rule="nonzero"/></g><path fill="#ffffff" d="M 130.054688 53.488281 L 12.753906 51.773438 L 130.054688 50.054688 C 131.070312 50.039062 131.910156 50.796875 131.925781 51.746094 C 131.941406 52.691406 131.128906 53.476562 130.113281 53.488281 C 130.097656 53.488281 130.070312 53.488281 130.054688 53.488281 Z M 130.054688 53.488281 " fill-opacity="1" fill-rule="nonzero"/><path fill="#ffffff" d="M 129.769531 47.472656 L 33.8125 45.753906 L 129.769531 44.039062 C 130.71875 44.023438 131.503906 44.777344 131.519531 45.726562 C 131.535156 46.671875 130.78125 47.457031 129.832031 47.472656 C 129.8125 47.472656 129.789062 47.472656 129.769531 47.472656 Z M 129.769531 47.472656 " fill-opacity="1" fill-rule="nonzero"/><path fill="#ffffff" d="M 129.910156 41.453125 L 41.480469 39.738281 L 129.910156 38.019531 C 130.78125 38.003906 131.503906 38.757812 131.519531 39.707031 C 131.535156 40.65625 130.839844 41.4375 129.964844 41.453125 C 129.949219 41.453125 129.925781 41.453125 129.910156 41.453125 Z M 129.910156 41.453125 " fill-opacity="1" fill-rule="nonzero"/><path fill="#ffffff" d="M 130.464844 71.542969 L 38.933594 69.824219 L 130.464844 68.105469 C 131.257812 68.09375 131.914062 68.847656 131.925781 69.796875 C 131.9375 70.746094 131.304688 71.527344 130.511719 71.542969 C 130.5 71.542969 130.480469 71.542969 130.464844 71.542969 Z M 130.464844 71.542969 " fill-opacity="1" fill-rule="nonzero"/><path fill="#ffffff" d="M 129.546875 65.523438 L 21.261719 63.808594 L 129.546875 62.089844 C 130.617188 62.074219 131.5 62.828125 131.519531 63.777344 C 131.539062 64.726562 130.6875 65.507812 129.617188 65.523438 C 129.59375 65.523438 129.566406 65.523438 129.546875 65.523438 Z M 129.546875 65.523438 " fill-opacity="1" fill-rule="nonzero"/><g clip-path="url(#3f473f68a7)"><path fill="#ffffff" d="M 129.214844 59.507812 L 2.792969 57.789062 L 129.214844 56.070312 C 130.464844 56.054688 131.496094 56.808594 131.519531 57.757812 C 131.542969 58.707031 130.546875 59.492188 129.296875 59.507812 C 129.273438 59.507812 129.238281 59.507812 129.214844 59.507812 Z M 129.214844 59.507812 " fill-opacity="1" fill-rule="nonzero"/></g><g clip-path="url(#b14705d9ce)"><path fill="#ffffff" d="M 131.007812 89.59375 L 73.464844 87.875 L 131.007812 86.160156 C 131.507812 86.144531 131.917969 86.902344 131.925781 87.847656 C 131.933594 88.796875 131.535156 89.578125 131.035156 89.59375 C 131.027344 89.59375 131.015625 89.59375 131.007812 89.59375 Z M 131.007812 89.59375 " fill-opacity="1" fill-rule="nonzero"/></g><path fill="#ffffff" d="M 130.058594 83.578125 L 49.972656 81.859375 L 130.058594 80.140625 C 130.851562 80.125 131.503906 80.878906 131.519531 81.828125 C 131.53125 82.777344 130.902344 83.5625 130.113281 83.578125 C 130.097656 83.578125 130.074219 83.578125 130.058594 83.578125 Z M 130.058594 83.578125 " fill-opacity="1" fill-rule="nonzero"/><path fill="#ffffff" d="M 129.945312 77.558594 L 43.566406 75.839844 L 129.945312 74.125 C 130.800781 74.109375 131.503906 74.863281 131.519531 75.8125 C 131.535156 76.757812 130.855469 77.542969 130 77.558594 C 129.984375 77.558594 129.960938 77.558594 129.945312 77.558594 Z M 129.945312 77.558594 " fill-opacity="1" fill-rule="nonzero"/><g clip-path="url(#62c02ac8ce)"><path fill="#ffffff" d="M 622.765625 35.4375 L 701.289062 33.71875 L 622.765625 32.003906 C 622.085938 31.988281 621.523438 32.746094 621.515625 33.691406 C 621.503906 34.640625 622.046875 35.421875 622.726562 35.4375 C 622.738281 35.4375 622.757812 35.4375 622.765625 35.4375 Z M 622.765625 35.4375 " fill-opacity="1" fill-rule="nonzero"/></g><g clip-path="url(#84cec2acc0)"><path fill="#ffffff" d="M 623.417969 29.417969 L 705.535156 27.703125 L 623.414062 25.984375 C 622.605469 25.96875 621.933594 26.722656 621.917969 27.671875 C 621.902344 28.621094 622.550781 29.40625 623.363281 29.421875 C 623.378906 29.421875 623.402344 29.421875 623.417969 29.417969 Z M 623.417969 29.417969 " fill-opacity="1" fill-rule="nonzero"/></g><g clip-path="url(#b185685f9d)"><path fill="#ffffff" d="M 623.007812 23.402344 L 682.597656 21.683594 L 623.007812 19.96875 C 622.417969 19.953125 621.929688 20.707031 621.921875 21.65625 C 621.910156 22.601562 622.378906 23.386719 622.96875 23.402344 C 622.980469 23.402344 622.996094 23.402344 623.007812 23.402344 Z M 623.007812 23.402344 " fill-opacity="1" fill-rule="nonzero"/></g><g clip-path="url(#3221c072a2)"><path fill="#ffffff" d="M 623.386719 53.488281 L 740.683594 51.773438 L 623.386719 50.054688 C 622.367188 50.039062 621.53125 50.796875 621.515625 51.746094 C 621.496094 52.691406 622.308594 53.476562 623.328125 53.488281 C 623.34375 53.488281 623.367188 53.488281 623.386719 53.488281 Z M 623.386719 53.488281 " fill-opacity="1" fill-rule="nonzero"/></g><g clip-path="url(#dc40f146a0)"><path fill="#ffffff" d="M 623.667969 47.472656 L 719.628906 45.753906 L 623.667969 44.039062 C 622.71875 44.023438 621.9375 44.777344 621.921875 45.726562 C 621.902344 46.671875 622.660156 47.457031 623.605469 47.472656 C 623.625 47.472656 623.652344 47.472656 623.667969 47.472656 Z M 623.667969 47.472656 " fill-opacity="1" fill-rule="nonzero"/></g><g clip-path="url(#91f511866e)"><path fill="#ffffff" d="M 623.53125 41.453125 L 711.960938 39.738281 L 623.53125 38.019531 C 622.65625 38.003906 621.9375 38.757812 621.921875 39.707031 C 621.90625 40.65625 622.601562 41.4375 623.476562 41.453125 C 623.492188 41.453125 623.515625 41.453125 623.53125 41.453125 Z M 623.53125 41.453125 " fill-opacity="1" fill-rule="nonzero"/></g><g clip-path="url(#eefaca661f)"><path fill="#ffffff" d="M 622.972656 71.542969 L 714.503906 69.824219 L 622.972656 68.105469 C 622.179688 68.09375 621.527344 68.847656 621.515625 69.796875 C 621.5 70.746094 622.136719 71.527344 622.929688 71.542969 C 622.941406 71.542969 622.960938 71.542969 622.972656 71.542969 Z M 622.972656 71.542969 " fill-opacity="1" fill-rule="nonzero"/></g><g clip-path="url(#95eb31c2bb)"><path fill="#ffffff" d="M 623.894531 65.523438 L 732.175781 63.808594 L 623.894531 62.089844 C 622.824219 62.074219 621.941406 62.828125 621.921875 63.777344 C 621.902344 64.726562 622.753906 65.507812 623.824219 65.523438 C 623.84375 65.523438 623.875 65.523438 623.894531 65.523438 Z M 623.894531 65.523438 " fill-opacity="1" fill-rule="nonzero"/></g><g clip-path="url(#e918340581)"><path fill="#ffffff" d="M 624.222656 59.507812 L 750.644531 57.789062 L 624.222656 56.070312 C 622.972656 56.054688 621.941406 56.808594 621.921875 57.757812 C 621.898438 58.707031 622.894531 59.492188 624.140625 59.507812 C 624.167969 59.507812 624.199219 59.507812 624.222656 59.507812 Z M 624.222656 59.507812 " fill-opacity="1" fill-rule="nonzero"/></g><g clip-path="url(#80f6abce96)"><path fill="#ffffff" d="M 622.433594 89.59375 L 679.976562 87.875 L 622.433594 86.160156 C 621.933594 86.144531 621.523438 86.902344 621.515625 87.847656 C 621.503906 88.796875 621.902344 89.578125 622.402344 89.59375 C 622.410156 89.59375 622.421875 89.59375 622.433594 89.59375 Z M 622.433594 89.59375 " fill-opacity="1" fill-rule="nonzero"/></g><g clip-path="url(#96995182f1)"><path fill="#ffffff" d="M 623.378906 83.578125 L 703.46875 81.859375 L 623.378906 80.140625 C 622.589844 80.125 621.933594 80.878906 621.921875 81.828125 C 621.90625 82.777344 622.535156 83.5625 623.328125 83.578125 C 623.34375 83.578125 623.363281 83.578125 623.378906 83.578125 Z M 623.378906 83.578125 " fill-opacity="1" fill-rule="nonzero"/></g><g clip-path="url(#fa1a501ecc)"><path fill="#ffffff" d="M 623.492188 77.558594 L 709.875 75.839844 L 623.492188 74.125 C 622.640625 74.109375 621.9375 74.863281 621.921875 75.8125 C 621.90625 76.757812 622.585938 77.542969 623.4375 77.558594 C 623.457031 77.558594 623.476562 77.558594 623.492188 77.558594 Z M 623.492188 77.558594 " fill-opacity="1" fill-rule="nonzero"/></g></svg>