<svg xmlns="http://www.w3.org/2000/svg" xmlns:xlink="http://www.w3.org/1999/xlink" width="41" zoomAndPan="magnify" viewBox="0 0 30.75 30.750001" height="41" preserveAspectRatio="xMidYMid meet" version="1.0"><defs><clipPath id="9311fb2d8d"><path d="M 0 0 L 29.757812 0 L 29.757812 29.757812 L 0 29.757812 Z M 0 0 " clip-rule="nonzero"/></clipPath></defs><g clip-path="url(#9311fb2d8d)"><path fill="#ffffff" d="M 26.886719 12.007812 C 24.925781 12.007812 21.398438 12.761719 18.421875 13.507812 C 21.058594 11.9375 24.105469 9.980469 25.5 8.585938 C 26.65625 7.429688 26.65625 5.558594 25.5 4.402344 C 24.34375 3.246094 22.472656 3.246094 21.316406 4.402344 C 19.933594 5.789062 17.972656 8.816406 16.394531 11.445312 C 17.148438 8.46875 17.921875 4.933594 17.921875 2.957031 C 17.921875 1.324219 16.597656 0 14.964844 0 C 13.328125 0 12.003906 1.324219 12.003906 2.957031 C 12.003906 4.917969 12.757812 8.445312 13.503906 11.421875 C 11.933594 8.785156 9.976562 5.738281 8.582031 4.34375 C 7.425781 3.1875 5.554688 3.1875 4.398438 4.34375 C 3.242188 5.5 3.242188 7.371094 4.398438 8.527344 C 5.785156 9.910156 8.8125 11.871094 11.441406 13.449219 C 8.464844 12.691406 4.929688 11.921875 2.953125 11.921875 C 1.320312 11.921875 -0.00390625 13.246094 -0.00390625 14.878906 C -0.00390625 16.515625 1.320312 17.839844 2.953125 17.839844 C 4.914062 17.839844 8.441406 17.085938 11.417969 16.339844 C 8.78125 17.910156 5.734375 19.863281 4.339844 21.261719 C 3.183594 22.417969 3.183594 24.289062 4.339844 25.445312 C 5.496094 26.601562 7.367188 26.601562 8.523438 25.445312 C 9.90625 24.058594 11.867188 21.03125 13.445312 18.402344 C 12.691406 21.378906 11.917969 24.914062 11.917969 26.890625 C 11.917969 28.523438 13.242188 29.847656 14.875 29.847656 C 16.511719 29.847656 17.835938 28.523438 17.835938 26.890625 C 17.835938 24.929688 17.082031 21.402344 16.335938 18.425781 C 17.90625 21.0625 19.863281 24.109375 21.257812 25.503906 C 22.414062 26.660156 24.285156 26.660156 25.441406 25.503906 C 26.597656 24.347656 26.597656 22.476562 25.441406 21.320312 C 24.054688 19.9375 21.027344 17.976562 18.398438 16.398438 C 21.375 17.152344 24.910156 17.925781 26.886719 17.925781 C 28.519531 17.925781 29.84375 16.601562 29.84375 14.96875 C 29.84375 13.332031 28.519531 12.007812 26.886719 12.007812 Z M 14.921875 14.921875 Z M 14.921875 14.921875 " fill-opacity="1" fill-rule="nonzero"/></g><path stroke-linecap="butt" transform="matrix(0.743952, 0, 0, 0.743952, 14.926123, 13.438223)" fill="none" stroke-linejoin="miter" d="M -0.000459931 1.999537 L 2.351844 1.999537 " stroke="#ffffff" stroke-width="4" stroke-opacity="1" stroke-miterlimit="4"/></svg>